<svg xmlns="http://www.w3.org/2000/svg" width="84" height="84">
	<circle fill="#2c3440" cx="42" cy="42" r="42"/>

	<circle fill="#eba414" cx="18" cy="42" r="14"/>
	<circle fill="#73b949" cx="42" cy="42" r="14"/>
	<circle fill="#79ace9" cx="66" cy="42" r="14"/>
	<g fill="#008000">
		<path d="M54 34.79c1.27 2.11 2 4.58 2 7.21s-.73 5.11-2 7.21c-1.27-2.11-2-4.58-2-7.21 0-2.61.72-5.06 1.96-7.15z"/>
		<path d="M30 34.79c1.27 2.11 2 4.58 2 7.21s-.73 5.11-2 7.21c-1.27-2.11-2-4.58-2-7.21 0-2.61.71-5.06 1.96-7.15z"/>
		<path d="M41.71 27.77c2.47-.05 4.97.55 7.24 1.87s4.06 3.19 5.23 5.33c-2.47.05-4.97-.55-7.24-1.87-2.26-1.31-4.03-3.14-5.21-5.27z"/>
		<path d="M17.71 27.77c2.47-.05 4.97.55 7.24 1.87s4.06 3.19 5.23 5.33c-2.47.05-4.97-.55-7.24-1.87-2.26-1.31-4.03-3.14-5.21-5.27z"/>
	</g>
	<circle fill="#4073af" cx="72" cy="36" r="3.5"/>
</svg>